<svg width="32" height="32" viewBox="0 0 32 32" fill="none" xmlns="http://www.w3.org/2000/svg">
<path d="M22.5938 31.0625C22.5938 31.5803 23.0135 32 23.5312 32C24.049 32 24.4688 31.5803 24.4688 31.0625C24.4688 24.503 21.7464 20.6542 18.6308 17.3451C18.4157 17.5616 18.2014 17.7759 17.9887 17.9887C17.7589 18.2185 17.5311 18.4464 17.3059 18.6732C17.6191 19.0067 17.9262 19.3439 18.2246 19.6875H13.7753C14.6806 18.6453 15.6643 17.6614 16.6628 16.6629C20.5005 12.8253 24.4688 8.85706 24.4688 0.9375C24.4688 0.41975 24.049 0 23.5312 0C23.0135 0 22.5938 0.41975 22.5938 0.9375C22.5938 1.25994 22.5863 1.57475 22.5723 1.88281H9.42775C9.41369 1.57475 9.40625 1.25994 9.40625 0.9375C9.40625 0.41975 8.9865 0 8.46875 0C7.951 0 7.53125 0.41975 7.53125 0.9375C7.53125 7.497 10.2536 11.3458 13.3692 14.6549C13.5842 14.4384 13.7986 14.2241 14.0113 14.0113C14.2411 13.7815 14.4689 13.5536 14.6941 13.3268C14.3909 13.0039 14.0934 12.6776 13.8039 12.3453H18.1963C17.2988 13.3754 16.3252 14.349 15.3371 15.3371C11.4995 19.1747 7.53125 23.1429 7.53125 31.0625C7.53125 31.5803 7.951 32 8.46875 32C8.9865 32 9.40625 31.5803 9.40625 31.0625C9.40625 30.7514 9.41337 30.4477 9.42644 30.15H22.5736C22.5866 30.4477 22.5938 30.7514 22.5938 31.0625ZM19.7004 21.5625C20.2361 22.3276 20.7189 23.139 21.1303 24.0184H10.8698C11.2811 23.139 11.7639 22.3276 12.2996 21.5625H19.7004ZM22.3921 3.75781C22.2649 4.60619 22.0802 5.39663 21.8469 6.13944H10.1531C9.91981 5.39663 9.73506 4.60612 9.60787 3.75781H22.3921ZM12.3229 10.4703C11.7847 9.705 11.2991 8.89381 10.8851 8.01444H21.1149C20.7009 8.89381 20.2153 9.705 19.6771 10.4703H12.3229ZM9.60306 28.275C9.72856 27.4267 9.91156 26.6363 10.1429 25.8934H21.8571C22.0884 26.6363 22.2714 27.4267 22.3969 28.275H9.60306Z" fill="#2C31AE"/>
</svg>
