<svg width="89" height="16" viewBox="0 0 89 16" fill="none" xmlns="http://www.w3.org/2000/svg">
<path d="M7.36816 7.37842H3.14941V10.2349H8.10059V12H0.952148V1.33594H8.08594V3.11572H3.14941V5.65723H7.36816V7.37842ZM12.2681 6.44092L13.6011 4.0752H15.8643L13.6084 7.95703L15.9595 12H13.689L12.2754 9.50977L10.8691 12H8.59131L10.9424 7.95703L8.69385 4.0752H10.9644L12.2681 6.44092ZM24.0161 8.11084C24.0161 9.33154 23.7378 10.3105 23.1812 11.0479C22.6294 11.7803 21.8823 12.1465 20.9399 12.1465C20.1392 12.1465 19.4922 11.8682 18.999 11.3115V15.0469H16.8823V4.0752H18.8452L18.9185 4.85156C19.4312 4.23633 20.1001 3.92871 20.9253 3.92871C21.9019 3.92871 22.6611 4.29004 23.2031 5.0127C23.7451 5.73535 24.0161 6.73145 24.0161 8.00098V8.11084ZM21.8994 7.95703C21.8994 7.21973 21.7676 6.65088 21.5039 6.25049C21.2451 5.8501 20.8667 5.6499 20.3687 5.6499C19.7046 5.6499 19.248 5.90381 18.999 6.41162V9.65625C19.2578 10.1787 19.7192 10.4399 20.3833 10.4399C21.394 10.4399 21.8994 9.6123 21.8994 7.95703ZM27.5684 12H25.4443V0.75H27.5684V12ZM28.9893 7.96436C28.9893 7.17822 29.1406 6.47754 29.4434 5.8623C29.7461 5.24707 30.1807 4.771 30.7471 4.43408C31.3184 4.09717 31.98 3.92871 32.7319 3.92871C33.8013 3.92871 34.6729 4.25586 35.3467 4.91016C36.0254 5.56445 36.4038 6.45312 36.4819 7.57617L36.4966 8.11816C36.4966 9.33398 36.1572 10.3105 35.4785 11.0479C34.7998 11.7803 33.8892 12.1465 32.7466 12.1465C31.604 12.1465 30.6909 11.7803 30.0073 11.0479C29.3286 10.3154 28.9893 9.31934 28.9893 8.05957V7.96436ZM31.106 8.11816C31.106 8.87012 31.2476 9.44629 31.5308 9.84668C31.814 10.2422 32.2192 10.4399 32.7466 10.4399C33.2593 10.4399 33.6597 10.2446 33.9478 9.854C34.2358 9.4585 34.3799 8.82861 34.3799 7.96436C34.3799 7.22705 34.2358 6.65576 33.9478 6.25049C33.6597 5.84521 33.2544 5.64258 32.7319 5.64258C32.2144 5.64258 31.814 5.84521 31.5308 6.25049C31.2476 6.65088 31.106 7.27344 31.106 8.11816ZM42.2534 6.06006C41.9653 6.021 41.7114 6.00146 41.4917 6.00146C40.6909 6.00146 40.166 6.27246 39.917 6.81445V12H37.8003V4.0752H39.7998L39.8584 5.02002C40.2832 4.29248 40.8716 3.92871 41.6235 3.92871C41.8579 3.92871 42.0776 3.96045 42.2827 4.02393L42.2534 6.06006ZM46.7798 12.1465C45.6177 12.1465 44.6704 11.79 43.938 11.0771C43.2104 10.3643 42.8467 9.41455 42.8467 8.22803V8.02295C42.8467 7.22705 43.0005 6.5166 43.3081 5.8916C43.6157 5.26172 44.0503 4.77832 44.6118 4.44141C45.1782 4.09961 45.8228 3.92871 46.5454 3.92871C47.6294 3.92871 48.4814 4.27051 49.1016 4.9541C49.7266 5.6377 50.0391 6.60693 50.0391 7.86182V8.72607H44.9927C45.061 9.24365 45.2661 9.65869 45.6079 9.97119C45.9546 10.2837 46.3916 10.4399 46.9189 10.4399C47.7344 10.4399 48.3716 10.1445 48.8306 9.55371L49.8706 10.7183C49.5532 11.1675 49.1235 11.519 48.5815 11.7729C48.0396 12.022 47.439 12.1465 46.7798 12.1465ZM46.5381 5.64258C46.1182 5.64258 45.7764 5.78418 45.5127 6.06738C45.2539 6.35059 45.0879 6.75586 45.0146 7.2832H47.959V7.11475C47.9492 6.646 47.8223 6.28467 47.5781 6.03076C47.334 5.77197 46.9873 5.64258 46.5381 5.64258ZM57.9932 1.33594L60.7324 9.07031L63.457 1.33594H66.3428V12H64.1382V9.08496L64.3579 4.05322L61.4795 12H59.9707L57.0996 4.06055L57.3193 9.08496V12H55.1221V1.33594H57.9932ZM67.793 7.96436C67.793 7.17822 67.9443 6.47754 68.2471 5.8623C68.5498 5.24707 68.9844 4.771 69.5508 4.43408C70.1221 4.09717 70.7837 3.92871 71.5356 3.92871C72.605 3.92871 73.4766 4.25586 74.1504 4.91016C74.8291 5.56445 75.2075 6.45312 75.2856 7.57617L75.3003 8.11816C75.3003 9.33398 74.9609 10.3105 74.2822 11.0479C73.6035 11.7803 72.6929 12.1465 71.5503 12.1465C70.4077 12.1465 69.4946 11.7803 68.811 11.0479C68.1323 10.3154 67.793 9.31934 67.793 8.05957V7.96436ZM69.9097 8.11816C69.9097 8.87012 70.0513 9.44629 70.3345 9.84668C70.6177 10.2422 71.0229 10.4399 71.5503 10.4399C72.063 10.4399 72.4634 10.2446 72.7515 9.854C73.0396 9.4585 73.1836 8.82861 73.1836 7.96436C73.1836 7.22705 73.0396 6.65576 72.7515 6.25049C72.4634 5.84521 72.0581 5.64258 71.5356 5.64258C71.0181 5.64258 70.6177 5.84521 70.3345 6.25049C70.0513 6.65088 69.9097 7.27344 69.9097 8.11816ZM81.0571 6.06006C80.769 6.021 80.5151 6.00146 80.2954 6.00146C79.4946 6.00146 78.9697 6.27246 78.7207 6.81445V12H76.604V4.0752H78.6035L78.6621 5.02002C79.0869 4.29248 79.6753 3.92871 80.4272 3.92871C80.6616 3.92871 80.8813 3.96045 81.0864 4.02393L81.0571 6.06006ZM85.5835 12.1465C84.4214 12.1465 83.4741 11.79 82.7417 11.0771C82.0142 10.3643 81.6504 9.41455 81.6504 8.22803V8.02295C81.6504 7.22705 81.8042 6.5166 82.1118 5.8916C82.4194 5.26172 82.854 4.77832 83.4155 4.44141C83.9819 4.09961 84.6265 3.92871 85.3491 3.92871C86.4331 3.92871 87.2852 4.27051 87.9053 4.9541C88.5303 5.6377 88.8428 6.60693 88.8428 7.86182V8.72607H83.7964C83.8647 9.24365 84.0698 9.65869 84.4116 9.97119C84.7583 10.2837 85.1953 10.4399 85.7227 10.4399C86.5381 10.4399 87.1753 10.1445 87.6343 9.55371L88.6743 10.7183C88.3569 11.1675 87.9272 11.519 87.3853 11.7729C86.8433 12.022 86.2427 12.1465 85.5835 12.1465ZM85.3418 5.64258C84.9219 5.64258 84.5801 5.78418 84.3164 6.06738C84.0576 6.35059 83.8916 6.75586 83.8184 7.2832H86.7627V7.11475C86.7529 6.646 86.626 6.28467 86.3818 6.03076C86.1377 5.77197 85.791 5.64258 85.3418 5.64258Z" fill="#2C31AE"/>
</svg>
