<svg width="16" height="9" viewBox="0 0 16 9" fill="none" xmlns="http://www.w3.org/2000/svg">
<path fill-rule="evenodd" clip-rule="evenodd" d="M10.8605 0.181864C10.9224 0.124215 10.996 0.0784775 11.077 0.0472703C11.158 0.0160631 11.2448 0 11.3325 0C11.4202 0 11.507 0.0160631 11.588 0.0472703C11.669 0.0784775 11.7425 0.124215 11.8044 0.181864L15.8042 3.89606C15.8662 3.95356 15.9155 4.02187 15.9491 4.09708C15.9827 4.17228 16 4.25291 16 4.33433C16 4.41576 15.9827 4.49638 15.9491 4.57159C15.9155 4.64679 15.8662 4.7151 15.8042 4.77261L11.8044 8.4868C11.6793 8.60304 11.5095 8.66834 11.3325 8.66834C11.1555 8.66834 10.9857 8.60304 10.8605 8.4868C10.7353 8.37056 10.665 8.21291 10.665 8.04853C10.665 7.88414 10.7353 7.72649 10.8605 7.61025L14.3896 4.33433L10.8605 1.05841C10.7984 1.00091 10.7492 0.9326 10.7156 0.857393C10.682 0.782187 10.6647 0.701563 10.6647 0.620139C10.6647 0.538714 10.682 0.45809 10.7156 0.382884C10.7492 0.307677 10.7984 0.239366 10.8605 0.181864V0.181864Z" fill="#2C31AE"/>
<path fill-rule="evenodd" clip-rule="evenodd" d="M0 4.33433C0 4.17015 0.0702329 4.0127 0.195248 3.8966C0.320263 3.78051 0.48982 3.71529 0.666618 3.71529H14.6656C14.8424 3.71529 15.012 3.78051 15.137 3.8966C15.262 4.0127 15.3322 4.17015 15.3322 4.33433C15.3322 4.4985 15.262 4.65596 15.137 4.77205C15.012 4.88814 14.8424 4.95336 14.6656 4.95336H0.666618C0.48982 4.95336 0.320263 4.88814 0.195248 4.77205C0.0702329 4.65596 0 4.4985 0 4.33433Z" fill="#2C31AE"/>
</svg>
