<svg width="37" height="37" viewBox="0 0 37 37" fill="none" xmlns="http://www.w3.org/2000/svg">
<path d="M18.5 9C13.2502 9 9 13.2548 9 18.5C9 23.7498 13.2548 28 18.5 28C23.7498 28 28 23.7452 28 18.5C28 13.2502 23.7452 9 18.5 9ZM18.5 24.6662C15.0922 24.6662 12.3338 21.9063 12.3338 18.5C12.3338 15.0937 15.0937 12.3338 18.5 12.3338C21.9063 12.3338 24.6662 15.0937 24.6662 18.5C24.6677 21.9063 21.9078 24.6662 18.5 24.6662Z" fill="#2C0EA7"/>
<path d="M26.1285 0.116219C22.7245 -0.0425698 14.2931 -0.0348616 10.8861 0.116219C7.89214 0.256508 5.25127 0.979537 3.12223 3.10854C-0.435941 6.66665 0.0188504 11.4611 0.0188504 18.4926C0.0188504 25.6889 -0.381983 30.3724 3.12223 33.8766C6.69427 37.447 11.5582 36.9799 18.5065 36.9799C25.6352 36.9799 28.0957 36.9845 30.6163 36.0087C34.0434 34.6782 36.6304 31.615 36.8832 26.1129C37.0435 22.7074 37.0343 14.2777 36.8832 10.8707C36.5779 4.37577 33.0922 0.43688 26.1285 0.116219ZM31.5166 31.5225C29.1841 33.855 25.9481 33.6469 18.4618 33.6469C10.7535 33.6469 7.66244 33.761 5.40698 31.4994C2.80927 28.914 3.27948 24.7624 3.27948 18.4679C3.27948 9.95034 2.40535 3.81615 10.9539 3.37833C12.918 3.30895 13.4961 3.28583 18.4402 3.28583L18.5096 3.33208C26.7251 3.33208 33.1709 2.47184 33.5578 11.0187C33.6457 12.9689 33.6657 13.5547 33.6657 18.491C33.6642 26.1098 33.8091 29.2193 31.5166 31.5225Z" fill="#2C0EA7"/>
</svg>
